<svg id="visual" viewBox="0 0 960 540" width="960" height="540" xmlns="http://www.w3.org/2000/svg" xmlns:xlink="http://www.w3.org/1999/xlink" version="1.1"><rect x="0" y="0" width="960" height="540" fill="#063b24"></rect><path d="M0 444L22.8 444.5C45.7 445 91.3 446 137 439.2C182.7 432.3 228.3 417.7 274 418.2C319.7 418.7 365.3 434.3 411.2 437.8C457 441.3 503 432.7 548.8 433.2C594.7 433.7 640.3 443.3 686 439.3C731.7 435.3 777.3 417.7 823 408.7C868.7 399.7 914.3 399.3 937.2 399.2L960 399L960 541L937.2 541C914.3 541 868.7 541 823 541C777.3 541 731.7 541 686 541C640.3 541 594.7 541 548.8 541C503 541 457 541 411.2 541C365.3 541 319.7 541 274 541C228.3 541 182.7 541 137 541C91.3 541 45.7 541 22.8 541L0 541Z" fill="#F4C430" stroke-linecap="round" stroke-linejoin="miter"></path></svg>